<?xml version="1.0" ?><!DOCTYPE svg  PUBLIC '-//W3C//DTD SVG 1.1//EN'  'http://www.w3.org/Graphics/SVG/1.1/DTD/svg11.dtd'><svg height="512px" style="enable-background:new 0 0 512 512;" version="1.1" viewBox="0 0 512 512" width="512px" xml:space="preserve" xmlns="http://www.w3.org/2000/svg" xmlns:xlink="http://www.w3.org/1999/xlink"><g id="_x35_87_x2C__gun_x2C__handgun_x2C__pistol_x2C__shooter_x2C__weapon"><g><path d="M357.99,140.879c-0.158,0.131-0.234,0.342-0.234,0.552    c0,0.157,0.051,0.315,0.156,0.446c10.077,9.553,19.998,19.998,29.865,29.865c0.132,0.131,0.316,0.211,0.525,0.211    c0.157,0,0.315-0.053,0.447-0.132l0.078-0.079c0.156-0.131,0.209-0.34,0.209-0.551c0.026-0.157-0.026-0.315-0.131-0.445    c-10.104-9.449-20.023-20.025-29.866-29.867c-0.156-0.131-0.341-0.21-0.524-0.21s-0.341,0.053-0.473,0.132L357.99,140.879z     M353.425,136.34l0.288-0.264c1.338-1.232,3.07-1.863,4.803-1.863c1.811,0,3.647,0.709,5.039,2.1    c9.762,9.736,21.049,20.025,30.074,30.076c1.234,1.338,1.838,3.07,1.838,4.803c0.026,1.837-0.682,3.674-2.072,5.092l-0.289,0.262    c-1.364,1.233-3.096,1.863-4.803,1.863c-1.838,0-3.699-0.709-5.092-2.1c-9.736-9.736-20.942-19.971-30.049-30.075    c-1.234-1.365-1.864-3.097-1.864-4.803C351.298,139.594,352.007,137.73,353.425,136.34z M387.41,140.879    c-0.157,0.131-0.236,0.342-0.236,0.552c0,0.157,0.053,0.315,0.131,0.446c10.104,9.553,20.077,20.05,29.866,29.865    c0.158,0.158,0.369,0.236,0.525,0.236c0.21-0.025,0.395-0.105,0.551-0.236c0.132-0.131,0.21-0.34,0.21-0.551    c0-0.157-0.053-0.315-0.157-0.445c-10.131-9.527-19.631-20.498-29.866-29.867c-0.131-0.157-0.34-0.236-0.524-0.236    C387.725,140.669,387.542,140.748,387.41,140.879z M382.818,136.34c1.416-1.418,3.254-2.127,5.091-2.127    c1.837,0.027,3.7,0.709,5.065,2.1c9.814,9.815,21.021,19.998,30.075,30.076c1.207,1.338,1.837,3.07,1.837,4.803    c0.026,1.837-0.683,3.674-2.072,5.092c-1.418,1.416-3.281,2.125-5.118,2.125c-1.838-0.025-3.675-0.709-5.064-2.1    c-9.526-9.526-20.97-19.971-30.05-30.075c-1.234-1.365-1.864-3.097-1.864-4.803C380.718,139.594,381.427,137.73,382.818,136.34z     M416.805,140.879c-0.132,0.131-0.211,0.342-0.211,0.552c0,0.157,0.053,0.315,0.132,0.446    c10.104,9.553,19.997,19.998,29.866,29.865c0.157,0.158,0.366,0.236,0.524,0.236c0.21-0.025,0.393-0.105,0.524-0.236    c0.158-0.131,0.237-0.34,0.237-0.551c0-0.157-0.053-0.315-0.158-0.445c-10.077-9.449-19.999-19.998-29.866-29.867    c-0.131-0.131-0.313-0.21-0.524-0.21C417.145,140.669,416.936,140.748,416.805,140.879z M412.236,136.34    c1.392-1.418,3.256-2.127,5.093-2.127s3.675,0.709,5.064,2.1c9.763,9.736,21.021,20.025,30.05,30.076    c1.233,1.338,1.863,3.07,1.863,4.803c0,1.837-0.683,3.674-2.074,5.092c-1.416,1.416-3.279,2.125-5.116,2.125    c-1.837-0.025-3.701-0.709-5.091-2.1c-9.711-9.736-20.943-19.971-30.023-30.075c-1.26-1.365-1.863-3.097-1.863-4.803    C410.139,139.594,410.847,137.73,412.236,136.34z M439.137,347.921c1.682-1.681,3.938-2.677,6.432-2.677    c2.492,0,4.776,0.996,6.403,2.65c1.679,1.652,2.676,3.937,2.676,6.43s-0.997,4.75-2.649,6.404    c-1.653,1.652-3.938,2.676-6.43,2.676c-2.493,0-4.75-1.023-6.405-2.676c-1.652-1.654-2.676-3.911-2.676-6.404    S437.511,349.547,439.137,347.921z M445.568,351.674c-0.735,0-1.392,0.314-1.863,0.762c-0.473,0.498-0.762,1.154-0.762,1.889    s0.289,1.391,0.762,1.863c0.472,0.473,1.128,0.762,1.863,0.762c0.733,0,1.39-0.289,1.863-0.762c0.473-0.473,0.76-1.129,0.76-1.863    s-0.287-1.391-0.735-1.863C446.958,351.988,446.302,351.674,445.568,351.674z M368.83,347.921    c1.652-1.681,3.909-2.677,6.402-2.677c2.494,0,4.777,0.996,6.405,2.65c1.679,1.652,2.702,3.937,2.702,6.43    s-1.049,4.776-2.676,6.404c-1.654,1.652-3.912,2.676-6.432,2.676c-2.467,0-4.75-1.023-6.402-2.676    c-1.653-1.654-2.678-3.911-2.678-6.404S367.177,349.547,368.83,347.921z M375.232,351.674c-0.734,0-1.39,0.314-1.837,0.762    c-0.499,0.498-0.786,1.154-0.786,1.889s0.287,1.391,0.76,1.863c0.474,0.473,1.129,0.762,1.863,0.762    c0.735,0,1.392-0.289,1.863-0.762c0.473-0.473,0.789-1.154,0.789-1.863c0-0.734-0.316-1.391-0.762-1.863    C376.624,351.988,375.968,351.674,375.232,351.674z M283.404,253.336c-0.21,0.342-0.498,0.656-0.84,0.919h16.77    c1.68,0,3.281-0.237,4.776-0.63c0.683-0.184,1.365-0.395,1.995-0.656l-12.334-32.517h-2.388    c1.337,5.249,1.207,10.419,0.051,15.431C290.019,242.051,287.026,247.93,283.404,253.336z M278.077,245.068    c1.05-9.158,2.151-18.869-4.409-24.59l-15.852,0.525c-1.575,1.548-2.861,3.542-3.779,5.721c-1.128,2.65-1.732,5.669-1.732,8.66    c0,5.118,2.046,9.764,5.354,13.148l0.184,0.157c3.411,3.438,8.136,5.564,13.331,5.564h7.586c-0.867-0.656-1.392-1.681-1.313-2.835    C277.605,249.347,277.84,247.221,278.077,245.068z M284.48,219.822l-2.781,0.078c2.676,4.095,3.569,8.792,3.647,13.7    C286.238,229.113,286.133,224.494,284.48,219.822z M356.521,368.916c0.786,1.207,1.941,2.257,3.175,3.018    c1.102,0.656,2.282,1.051,3.308,0.998l96.211-5.722c0.314-0.026,0.63,0,0.918,0.079l24.591,5.721c0.237,0.053,0.394,0.053,0.524,0    l0.29-0.235c0.156-0.237,0.314-0.526,0.393-0.866v-0.079c0.132-0.683,0.079-1.47-0.21-2.257l-57.605-154.344l-2.704,0.08    l-122.402,4.172h-0.026h-0.026h-0.053h-0.026h-0.026h-0.053h-0.026h-0.051h-0.026l-1.969,0.08l18.162,48.63l0.024,0.079    l0.026,0.078L356.521,368.916z M396.597,224.152c1.679-1.653,3.937-2.678,6.43-2.678s4.776,1.024,6.403,2.651    c1.679,1.681,2.678,3.937,2.678,6.431c0,2.519-0.999,4.775-2.652,6.429c-1.652,1.628-3.936,2.651-6.429,2.651    s-4.776-1.023-6.43-2.651c-1.628-1.653-2.651-3.936-2.651-6.429C393.945,228.063,394.969,225.807,396.597,224.152z     M403.026,227.932c-0.735,0-1.392,0.289-1.864,0.761c-0.472,0.474-0.762,1.128-0.762,1.864c0,0.734,0.29,1.391,0.762,1.863    c0.473,0.472,1.155,0.76,1.864,0.76c0.735,0,1.39-0.288,1.863-0.734c0.472-0.498,0.76-1.154,0.76-1.889    c0-0.736-0.288-1.391-0.733-1.864C404.416,228.221,403.762,227.932,403.026,227.932z M326.287,224.152    c1.653-1.653,3.912-2.678,6.403-2.678c2.493,0,4.776,1.024,6.405,2.651c1.679,1.681,2.702,3.937,2.702,6.431    c0,2.493-1.023,4.775-2.677,6.429c-1.628,1.628-3.91,2.651-6.431,2.651c-2.362,0-4.54-0.918-6.166-2.44l-0.237-0.211    c-1.652-1.653-2.676-3.91-2.676-6.429C323.611,228.063,324.635,225.807,326.287,224.152z M332.69,227.932    c-0.733,0-1.39,0.289-1.837,0.761c-0.498,0.474-0.786,1.128-0.786,1.864c0,0.734,0.288,1.391,0.786,1.863l0.105,0.131    c0.447,0.394,1.077,0.629,1.731,0.629c0.735,0,1.392-0.288,1.864-0.76c0.473-0.473,0.787-1.129,0.787-1.863    c0-0.736-0.314-1.391-0.762-1.864C334.082,228.221,333.426,227.932,332.69,227.932z M243.749,221.134    c-1.626,2.284-2.913,4.908-3.857,7.69c-1.104,3.307-1.681,6.902-1.681,10.523c0,7.742,3.176,14.802,8.268,19.92    c5.091,5.092,12.149,8.267,19.918,8.267h40.049c1.471,0,2.887-0.131,4.278-0.341l0.893-0.131l-3.044-8.137    c-0.919,0.367-1.864,0.683-2.81,0.919c-2.072,0.551-4.224,0.839-6.43,0.839h-28.16c-6.98,0-13.305-2.833-17.898-7.426l-0.183-0.21    c-4.462-4.567-7.244-10.813-7.244-17.663c0-3.831,0.786-7.715,2.283-11.18c0.472-1.129,1.023-2.23,1.653-3.281L243.749,221.134z     M41.354,126.13v33.567c0,1.784-1.444,3.227-3.229,3.227s-3.227-1.442-3.227-3.227v-29.053L26,133.872v32.91l12.676,4.593h269.476    c1.784,0,3.229,1.471,3.229,3.229c0,1.784-1.444,3.228-3.229,3.228H41.354v29.866h26.611c1.758,0,3.203,1.443,3.203,3.228v0.105    c0.105,1.154,0.63,2.231,1.442,2.991c0.84,0.814,2.021,1.313,3.281,1.313h65.191c1.26,0,2.44-0.498,3.279-1.313    c0.841-0.813,1.392-1.967,1.444-3.228c0.053-1.731,1.497-3.097,3.202-3.097h66.188c1.785,0,3.229,1.443,3.229,3.228v0.105    c0.208,2.415,2.256,4.304,4.724,4.304c5.406,0.105,11.048,0.158,16.874,0.211c0.553-0.499,1.287-0.762,1.995-0.787l60.545-1.943    c0.446-0.025,0.865,0.053,1.261,0.21l126.391-4.304l0.105-0.026h19.841c7.376,0,14.093-3.019,18.975-7.899    c4.855-4.855,7.899-11.574,7.899-18.948v-31.913c0-3.412-0.63-6.691-1.784-9.658c-1.207-3.097-2.992-5.932-5.196-8.371    l-0.078-0.079c-2.6-3.071-5.853-5.591-9.554-7.323l-0.21-0.104c-3.464-1.575-7.349-2.467-11.443-2.467h-15.903    c-1.784,0-3.229-1.443-3.229-3.229v-0.788c0-1.285-0.524-2.466-1.39-3.333c-0.841-0.84-2.021-1.391-3.334-1.391H298.074    c-1.286,0-2.493,0.551-3.332,1.391c-0.867,0.867-1.392,2.048-1.392,3.333v0.788c0,1.785-1.442,3.229-3.227,3.229H130.138    c-1.784,0-3.227-1.443-3.227-3.229v-0.788c0-1.285-0.525-2.466-1.392-3.333c-0.841-0.84-2.048-1.391-3.333-1.391H57.023    c-1.313,0-2.494,0.551-3.36,1.391c-0.839,0.867-1.392,2.048-1.392,3.333v0.788c0,1.785-1.442,3.229-3.201,3.229h-7.716v4.041    v0.078V126.13z M84.5,310.155h15.877v-2.651v-0.104l0,0v-0.105l0,0v-0.104l0,0v-0.079v-0.026v-0.078v-0.025v-0.08v-0.025    l-0.026-0.08l0,0v-0.078v-0.026v-0.078l-0.026-0.026v-0.079v-0.026v-0.053v-0.025l-0.026-0.078v-0.027v-0.078l-0.026-0.027v-0.053    v-0.052l-0.026-0.052v-0.026v-0.053l-0.026-0.053v-0.053v-0.053l-0.026-0.025v-0.053l-0.026-0.052v-0.053v-0.053l-0.026-0.053    v-0.025l-0.026-0.053v-0.027l-0.026-0.078V305.3l-0.024-0.079l0,0l-0.026-0.078v-0.026l-0.026-0.079l0,0l-0.026-0.078    l-0.026-0.027l-0.026-0.078l0,0l-0.026-0.078l0,0l-0.026-0.105l0,0l-0.053-0.079l0,0l-0.026-0.078l-0.026-0.105l0,0l-0.053-0.079    l0,0l-0.026-0.078v-0.025l-0.053-0.08l0,0l-0.026-0.078l0,0l-0.053-0.078v-0.026l-0.026-0.053l-0.026-0.026l-0.025-0.053v-0.026    l-0.053-0.079l0,0l-0.026-0.078l-0.026-0.025l-0.026-0.053l-0.026-0.027l-0.026-0.053v-0.025l-0.053-0.053v-0.025l-0.026-0.053    l-0.026-0.026l-0.026-0.053l-0.026-0.026l-0.026-0.053l-0.026-0.026l-0.026-0.053l-0.026-0.025l-0.026-0.053l-0.026-0.026    l-0.026-0.053l-0.026-0.025l-0.026-0.027l-0.024-0.053l-0.026-0.025l-0.053-0.053v-0.025l-0.053-0.053v-0.026l-0.052-0.053    l-0.026-0.026l-0.026-0.053l-0.026-0.025l-0.026-0.053l-0.079-0.053v-0.026l-0.053-0.053v-0.026l-0.079-0.053l0,0l-0.053-0.078    l0,0l-0.051-0.053l0,0L98.2,302.02l0,0l-0.132-0.131c-0.342-0.342-0.708-0.656-1.102-0.919l0,0l-0.237-0.157l0,0l-0.577-0.342l0,0    l-0.105-0.053l0,0l-0.079-0.052l0,0l-0.183-0.079l0,0l-0.079-0.026l0,0l-0.079-0.052l0,0l-0.105-0.027l0,0l-0.079-0.053    l-0.105-0.025l0,0l-0.077-0.025l0,0l-0.079-0.053l0,0l-0.105-0.027l0,0l-0.079-0.025l-0.105-0.027l-0.079-0.025h-0.026    l-0.079-0.053l-0.104-0.026l0,0l-0.079-0.026l0,0l-0.105-0.025h-0.079l-0.105-0.026l0,0l-0.105-0.026l0,0l-0.077-0.026l0,0    l-0.105-0.026l0,0h-0.105l-0.079-0.026h-0.026l-0.079-0.026l0,0h-0.105l0,0l-0.104-0.026h-0.105l0,0l-0.079-0.026l0,0H93.16l0,0    h-0.105l0,0l-0.105-0.026l0,0h-0.104l0,0h-0.079h-0.026h-0.079h-0.105l0,0h-0.105l0,0h-0.105l0,0h-0.104l0,0h-0.105l0,0h-0.105    l0,0h-0.105l-0.079,0.026l0,0h-0.105l0,0h-0.104l-0.105,0.026h-0.105l0,0l-0.079,0.026h-0.105l-0.105,0.026l-0.104,0.026l0,0    h-0.079l-0.105,0.026l0,0l-0.105,0.026l-0.079,0.026h-0.105l-0.104,0.026l-0.079,0.025l-0.105,0.026l-0.079,0.026l0,0    l-0.105,0.053l-0.079,0.025h-0.026l-0.077,0.027l-0.105,0.025l-0.079,0.027l-0.105,0.025l-0.079,0.053l0,0l-0.079,0.025    l-0.105,0.053l-0.077,0.027l-0.079,0.052l-0.105,0.026l-0.079,0.053l-0.105,0.026l-0.079,0.052l-0.079,0.053l-0.077,0.026    l-0.079,0.053l-0.105,0.052l-0.079,0.053l-0.079,0.053l-0.079,0.053l-0.079,0.025l-0.077,0.08l-0.079,0.052l-0.079,0.053    l-0.079,0.052l-0.079,0.053l-0.079,0.053l-0.079,0.053l-0.079,0.053l-0.077,0.053l-0.079,0.078l-0.052,0.053l-0.079,0.053    l-0.079,0.078l-0.053,0.053l-0.079,0.078l-0.079,0.053l-0.051,0.079l-0.079,0.053c-1.444,1.47-2.335,3.438-2.335,5.642V310.155z     M100.377,316.611H84.5v32.963h15.877V316.611z M121.057,310.155h15.905v-2.651v-0.104l0,0v-0.105l0,0v-0.104h-0.026v-0.079    v-0.026v-0.078v-0.025v-0.08v-0.025v-0.08l0,0l-0.026-0.078v-0.026v-0.078v-0.026l-0.026-0.079v-0.026v-0.053v-0.025l-0.026-0.078    v-0.027v-0.078v-0.027l-0.026-0.053v-0.052v-0.052l-0.026-0.026v-0.053v-0.053l-0.026-0.053v-0.053v-0.025l-0.026-0.053v-0.052    l-0.026-0.053v-0.053l-0.026-0.053v-0.025l-0.026-0.053v-0.027l-0.026-0.078V305.3l-0.026-0.079l0,0l-0.026-0.078v-0.026    l-0.026-0.079l0,0l-0.024-0.078v-0.027l-0.026-0.078l0,0l-0.053-0.078l0,0l-0.026-0.105l0,0l-0.026-0.079l0,0l-0.053-0.078    l-0.026-0.105l0,0l-0.026-0.079l0,0l-0.052-0.078v-0.025l-0.026-0.08h-0.026l-0.026-0.078l0,0l-0.026-0.078l-0.026-0.026    l-0.026-0.053v-0.026l-0.053-0.053v-0.026l-0.026-0.079h-0.026l-0.026-0.078l-0.025-0.025l-0.026-0.053v-0.027l-0.026-0.053    l-0.026-0.025l-0.026-0.053l-0.026-0.025l-0.026-0.053l-0.026-0.026l-0.026-0.053l-0.026-0.026l-0.026-0.053l-0.026-0.026    l-0.026-0.053l-0.026-0.025l-0.026-0.053l-0.026-0.026l-0.026-0.053l-0.026-0.025l-0.026-0.027l-0.026-0.053l-0.026-0.025    l-0.026-0.053l-0.024-0.025l-0.026-0.053l-0.026-0.026l-0.053-0.053v-0.026l-0.052-0.053v-0.025l-0.053-0.053l-0.053-0.053    l-0.026-0.026l-0.053-0.053v-0.026l-0.053-0.053h-0.026l-0.052-0.078l0,0l-0.053-0.053l0,0l-0.077-0.078l0,0l-0.132-0.131    c-0.342-0.342-0.709-0.656-1.102-0.919l0,0l-0.237-0.157l0,0l-0.577-0.342l0,0l-0.079-0.053l0,0l-0.105-0.052l0,0l-0.156-0.079    l0,0l-0.105-0.026l0,0l-0.079-0.052l0,0l-0.079-0.027l0,0l-0.105-0.053l-0.079-0.025l0,0l-0.105-0.025l0,0l-0.077-0.053l0,0    l-0.105-0.027l0,0l-0.079-0.025l-0.105-0.027l-0.079-0.025l0,0l-0.105-0.053l-0.079-0.026l0,0l-0.104-0.026l0,0l-0.079-0.025    h-0.105l-0.105-0.026l0,0l-0.079-0.026h-0.026l-0.079-0.026l0,0l-0.104-0.026l0,0h-0.105l-0.079-0.026l0,0l-0.105-0.026l0,0    h-0.105l0,0l-0.105-0.026h-0.077l0,0l-0.105-0.026l0,0h-0.105l0,0h-0.105l0,0l-0.079-0.026h-0.026h-0.079l0,0h-0.104l0,0h-0.105    h-0.105l0,0h-0.105l0,0h-0.105l0,0h-0.105l0,0h-0.077h-0.026h-0.079h-0.026h-0.079l-0.105,0.026l0,0h-0.105l0,0h-0.105    l-0.104,0.026h-0.079l0,0l-0.105,0.026h-0.105l-0.105,0.026l-0.079,0.026l0,0h-0.104l-0.105,0.026l0,0l-0.079,0.026l-0.105,0.026    h-0.105l-0.079,0.026l-0.104,0.025l-0.105,0.026l-0.079,0.026l0,0l-0.105,0.053l-0.079,0.025l0,0l-0.105,0.027l-0.077,0.025    l-0.105,0.027l-0.079,0.025l-0.105,0.053l0,0l-0.079,0.025l-0.105,0.053l-0.079,0.027l-0.077,0.052l-0.105,0.026l-0.079,0.053    l-0.079,0.026l-0.079,0.052l-0.105,0.053l-0.079,0.026l-0.077,0.053l-0.079,0.052l-0.105,0.053l-0.079,0.053l-0.079,0.053    l-0.079,0.025l-0.079,0.08l-0.077,0.052l-0.079,0.053l-0.079,0.052l-0.079,0.053l-0.079,0.053l-0.079,0.053l-0.079,0.053    l-0.053,0.053l-0.077,0.078l-0.079,0.053l-0.079,0.053l-0.079,0.078l-0.053,0.053l-0.079,0.078l-0.079,0.053l-0.053,0.079    l-0.077,0.053c-1.444,1.47-2.337,3.438-2.337,5.642V310.155z M136.962,316.611h-15.905v32.963h15.905V316.611z M157.642,310.155    h15.878v-2.651v-0.104l0,0v-0.105l0,0v-0.104l0,0v-0.079v-0.026l-0.026-0.078v-0.025v-0.08v-0.025v-0.08l0,0v-0.078l-0.026-0.026    v-0.078v-0.026v-0.079v-0.026l-0.026-0.053v-0.025v-0.078v-0.027l-0.026-0.078v-0.027v-0.053l-0.026-0.052v-0.052v-0.026    l-0.026-0.053v-0.053v-0.053l-0.026-0.053v-0.025l-0.026-0.053v-0.052l-0.026-0.053v-0.053l-0.026-0.053v-0.025v-0.053    l-0.026-0.027v-0.078l-0.026-0.026v-0.079h-0.026l-0.026-0.078v-0.026l-0.026-0.079l0,0l-0.026-0.078v-0.027l-0.026-0.078l0,0    l-0.026-0.078l0,0l-0.051-0.105l0,0l-0.026-0.079l0,0l-0.026-0.078l-0.053-0.105l0,0l-0.026-0.079l0,0l-0.026-0.078l-0.026-0.025    l-0.026-0.08l0,0l-0.052-0.078l0,0l-0.026-0.078v-0.026l-0.053-0.053v-0.026l-0.026-0.053l-0.026-0.026l-0.026-0.079h-0.026    l-0.026-0.078v-0.025l-0.026-0.053l-0.026-0.027l-0.026-0.053l-0.025-0.025l-0.026-0.053l-0.026-0.025l-0.026-0.053l-0.026-0.026    l-0.026-0.053l-0.026-0.026l-0.026-0.053l-0.026-0.026l-0.026-0.053l-0.026-0.025v-0.053l-0.053-0.026v-0.053l-0.052-0.025    l-0.026-0.027l-0.026-0.053l-0.026-0.025l-0.026-0.053l-0.026-0.025l-0.026-0.053l-0.026-0.026l-0.026-0.053l-0.024-0.026    l-0.053-0.053v-0.025l-0.053-0.053l-0.052-0.053l-0.026-0.026l-0.053-0.053v-0.026l-0.053-0.053l0,0l-0.053-0.078h-0.026    l-0.052-0.053l0,0l-0.053-0.078l0,0l-0.156-0.131c-0.342-0.342-0.709-0.656-1.104-0.919l0,0l-0.235-0.157l0,0l-0.577-0.342l0,0    l-0.079-0.053l0,0l-0.079-0.052l0,0l-0.184-0.079l0,0l-0.079-0.026l0,0l-0.104-0.052l0,0l-0.079-0.027l0,0l-0.079-0.053    l-0.105-0.025l0,0l-0.079-0.025l0,0l-0.105-0.053l0,0l-0.077-0.027l0,0l-0.105-0.025l-0.079-0.027l-0.105-0.025l0,0l-0.079-0.053    l-0.105-0.026l0,0l-0.104-0.026l0,0l-0.079-0.025h-0.105l-0.079-0.026h-0.026l-0.079-0.026l0,0l-0.105-0.026l0,0l-0.105-0.026l0,0    h-0.077l-0.105-0.026l0,0l-0.105-0.026l0,0h-0.079h-0.026l-0.079-0.026h-0.105l0,0l-0.104-0.026l0,0h-0.105l0,0h-0.079l0,0    l-0.105-0.026l0,0h-0.105l0,0h-0.105l0,0h-0.104h-0.105l0,0h-0.105l0,0h-0.079h-0.026h-0.079h-0.026h-0.079l0,0h-0.104l0,0h-0.105    l-0.105,0.026l0,0h-0.105l0,0h-0.079l-0.105,0.026h-0.104l0,0l-0.105,0.026h-0.105l-0.079,0.026l-0.105,0.026l0,0h-0.105    l-0.077,0.026l0,0l-0.105,0.026l-0.105,0.026h-0.079l-0.105,0.026l-0.105,0.025l-0.077,0.026l-0.105,0.026l0,0l-0.079,0.053    l-0.105,0.025l0,0l-0.079,0.027l-0.105,0.025l-0.079,0.027l-0.104,0.025l-0.079,0.053l0,0l-0.105,0.025l-0.079,0.053l-0.105,0.027    l-0.079,0.052l-0.077,0.026l-0.105,0.053l-0.079,0.026l-0.079,0.052l-0.079,0.053l-0.105,0.026l-0.079,0.053l-0.077,0.052    l-0.079,0.053l-0.079,0.053l-0.079,0.053l-0.105,0.025l-0.079,0.08l-0.079,0.052l-0.077,0.053l-0.079,0.052l-0.079,0.053    l-0.079,0.053l-0.053,0.053l-0.079,0.053l-0.079,0.053l-0.079,0.078l-0.077,0.053l-0.053,0.053l-0.079,0.078l-0.079,0.053    l-0.079,0.078l-0.053,0.053l-0.079,0.079l-0.053,0.053c-1.442,1.47-2.335,3.438-2.335,5.642V310.155z M173.521,316.611h-15.878    v32.963h15.878V316.611z M194.2,310.155h15.879v-2.651v-0.104l0,0v-0.105l0,0v-0.104l0,0v-0.079v-0.026v-0.078v-0.025l-0.026-0.08    v-0.025v-0.08l0,0v-0.078v-0.026l-0.026-0.078v-0.026v-0.079v-0.026v-0.053L210,306.402v-0.078v-0.027l-0.026-0.078v-0.027v-0.053    v-0.052l-0.026-0.052v-0.026v-0.053l-0.026-0.053v-0.053l-0.026-0.053v-0.025v-0.053l-0.026-0.052v-0.053l-0.026-0.053v-0.053    l-0.026-0.025v-0.053l-0.026-0.027v-0.078V305.3l-0.026-0.079l0,0l-0.026-0.078l-0.026-0.026v-0.079h-0.026l-0.026-0.078v-0.027    l-0.026-0.078l0,0l-0.026-0.078l0,0l-0.026-0.105l0,0l-0.053-0.079l0,0l-0.026-0.078l-0.024-0.105l0,0l-0.053-0.079l0,0    l-0.026-0.078v-0.025l-0.053-0.08l0,0l-0.026-0.078h-0.026l-0.026-0.078v-0.026l-0.026-0.053l-0.026-0.026l-0.026-0.053v-0.026    l-0.053-0.079l0,0l-0.026-0.078l-0.026-0.025l-0.026-0.053l-0.026-0.027l-0.026-0.053l-0.026-0.025l-0.026-0.053v-0.025    l-0.053-0.053v-0.026l-0.025-0.053l-0.026-0.026l-0.026-0.053l-0.026-0.026l-0.026-0.053l-0.026-0.025l-0.026-0.053l-0.026-0.026    l-0.026-0.053l-0.026-0.025l-0.026-0.027l-0.052-0.053v-0.025l-0.053-0.053v-0.025l-0.053-0.053v-0.026l-0.053-0.053l-0.026-0.026    l-0.026-0.053l-0.026-0.025l-0.051-0.053l-0.053-0.053v-0.026l-0.052-0.053l-0.026-0.026l-0.053-0.053l0,0l-0.053-0.078l0,0    l-0.053-0.053h-0.026l-0.052-0.078l0,0l-0.158-0.131c-0.314-0.342-0.681-0.656-1.076-0.919l0,0l-0.235-0.157h-0.026l-0.551-0.342    h-0.026l-0.079-0.053l0,0l-0.079-0.052l0,0l-0.184-0.079l0,0l-0.079-0.026l0,0l-0.104-0.052l0,0l-0.079-0.027l0,0l-0.079-0.053    l-0.105-0.025l0,0l-0.079-0.025l0,0l-0.105-0.053l0,0l-0.079-0.027l0,0l-0.104-0.025l-0.079-0.027l-0.105-0.025l0,0l-0.079-0.053    l-0.105-0.026l0,0l-0.079-0.026l0,0l-0.105-0.025h-0.104l-0.079-0.026l0,0l-0.105-0.026l0,0l-0.105-0.026l0,0l-0.079-0.026l0,0    h-0.105l-0.104-0.026l0,0l-0.079-0.026h-0.026h-0.079l0,0l-0.105-0.026h-0.105l0,0l-0.079-0.026h-0.026h-0.077l0,0h-0.105l0,0    l-0.105-0.026l0,0h-0.105l0,0h-0.105l0,0h-0.105h-0.077l0,0h-0.105l0,0h-0.105l0,0h-0.105l0,0h-0.105l0,0h-0.105l0,0h-0.104    l-0.079,0.026h-0.026h-0.079l0,0h-0.105l-0.105,0.026h-0.105l0,0l-0.077,0.026h-0.105l-0.105,0.026l-0.105,0.026l0,0h-0.079    l-0.105,0.026l0,0l-0.104,0.026l-0.079,0.026h-0.105l-0.105,0.026l-0.079,0.025l-0.105,0.026l-0.077,0.026h-0.026l-0.079,0.053    l-0.105,0.025l0,0l-0.079,0.027l-0.105,0.025l-0.079,0.027l-0.104,0.025l-0.079,0.053l0,0l-0.079,0.025l-0.105,0.053l-0.079,0.027    l-0.105,0.052l-0.079,0.026l-0.077,0.053l-0.105,0.026l-0.079,0.052l-0.079,0.053l-0.079,0.026l-0.105,0.053l-0.079,0.052    l-0.077,0.053l-0.079,0.053l-0.079,0.053l-0.079,0.025l-0.079,0.08l-0.079,0.052l-0.079,0.053l-0.079,0.052l-0.077,0.053    l-0.079,0.053l-0.079,0.053l-0.079,0.053l-0.079,0.053l-0.079,0.078l-0.053,0.053l-0.079,0.053l-0.077,0.078l-0.079,0.053    l-0.053,0.078l-0.079,0.053l-0.079,0.079l-0.052,0.053c-1.442,1.47-2.336,3.438-2.336,5.642V310.155z M210.079,316.611H194.2    v32.963h15.879V316.611z M49.384,386.893c-1.785,0-3.227-1.443-3.227-3.228c0-1.759,1.442-3.228,3.227-3.228h264.883    c1.758,0,3.229,1.469,3.229,3.228c0,1.784-1.471,3.228-3.229,3.228H49.384z M204.488,398.809c-1.784,0-3.229-1.444-3.229-3.203    c0-1.783,1.444-3.227,3.229-3.227h183.289c1.785,0,3.229,1.443,3.229,3.227c0,1.759-1.443,3.203-3.229,3.203H204.488z     M406.543,398.809c-1.785,0-3.229-1.444-3.229-3.203c0-1.783,1.444-3.227,3.229-3.227h22.911c1.785,0,3.228,1.443,3.228,3.227    c0,1.759-1.442,3.203-3.228,3.203H406.543z M38.94,398.467c-1.785,0-3.229-1.443-3.229-3.228s1.444-3.229,3.229-3.229h86.867    c1.76,0,3.203,1.444,3.203,3.229s-1.442,3.228-3.203,3.228H38.94z M359.617,181.951h-29.945c-0.234,0-0.472,0.053-0.654,0.185    c-0.211,0.104-0.368,0.288-0.474,0.472c-0.577,1.654-0.13,6.771-0.13,8.793c0,0.341,0.13,0.682,0.367,0.892    c0.236,0.235,0.551,0.394,0.891,0.394h29.945c0.342,0,0.656-0.158,0.893-0.394s0.367-0.551,0.367-0.892    c0-1.707,0.473-7.533-0.183-8.846c-0.104-0.184-0.237-0.314-0.421-0.419C360.091,182.004,359.854,181.951,359.617,181.951z" style="fill-rule:evenodd;clip-rule:evenodd;"/></g></g><g id="Layer_1"/></svg>